# xmcd
#
# Track frame offsets: 
#        150
#        29264
#        48848
#        71219
#        92220
#        119007
#        137579
#        155608
#        165686
#        187366
#        220675
#        232213
#
# Disc length: 3441 seconds
#
# Revision: 1
# Processed by: cddbd v1.5.2PL0 Copyright (c) Steve Scherf et al.
# Submitted via: ExactAudioCopy v0.95b4
#
DISCID=b60d6f0c
DTITLE=Oskar Aichinger - Elements of Poetry
DYEAR=1999
DGENRE=Jazz
TTITLE0=Poemia Trois
TTITLE1=Refugium
TTITLE2=Elements of Poetry 1
TTITLE3=Perdendosi
TTITLE4=Elements of Poetry 2
TTITLE5=Lugubre
TTITLE6=Loose Calypso
TTITLE7=Air
TTITLE8=Andere
TTITLE9=In Rilievo
TTITLE10=Ridicolosamente
TTITLE11=Concordanza
EXTD=
EXTT0=
EXTT1=
EXTT2=
EXTT3=
EXTT4=
EXTT5=
EXTT6=
EXTT7=
EXTT8=
EXTT9=
EXTT10=
EXTT11=
PLAYORDER=
